<svg id="Layer_1" data-name="Layer 1" xmlns="http://www.w3.org/2000/svg" viewBox="0 0 31.25 31.25"><defs><style>.cls-1{fill:#3c1a5b;}.cls-2{fill:#fff748;}</style></defs><title>favicon - 32 x 32</title><path class="cls-1" d="M3.22,23.08l1.44-1.35a13.5,13.5,0,0,0,2.65,3.95,12.78,12.78,0,0,0,18.6,0,14.08,14.08,0,0,0,0-19.36,12.78,12.78,0,0,0-18.6,0,13.81,13.81,0,0,0-3.8,8.44l1-.93L2.69,18.54.38,14.09,1.62,15A15.89,15.89,0,0,1,6,5,14.61,14.61,0,0,1,27.23,5a16.09,16.09,0,0,1,0,22.1A14.61,14.61,0,0,1,6,27.05,15.69,15.69,0,0,1,3.22,23.08Z" transform="translate(-0.38 -0.38)"/><path d="M15.69,21.2l-.1.62-.66,0a9.61,9.61,0,0,1-1-.06c-.66-.07-1.07-.11-1.24-.11a10.52,10.52,0,0,0-1.35.14A11.92,11.92,0,0,0,11.9,20a19.81,19.81,0,0,0,.34-2.27q-1.23,0-3.78.06a28.37,28.37,0,0,1-3.9,5.27,3.67,3.67,0,0,1-2.35,1.08A1.39,1.39,0,0,1,1.34,24a.76.76,0,0,1-.29-.6.68.68,0,0,1,.17-.47.54.54,0,0,1,.42-.18,2.43,2.43,0,0,1,.39.05,4.61,4.61,0,0,0,.84.15,2.35,2.35,0,0,0,1.54-.82,34.68,34.68,0,0,0,4.07-5.63,64,64,0,0,1,4.93-7.06,19.89,19.89,0,0,0-3.21.45,2.7,2.7,0,0,0-1.31.87,1.92,1.92,0,0,0-.44,1.17,1.75,1.75,0,0,0,.14.55,2.15,2.15,0,0,1,.14.59.58.58,0,0,1-.18.42.56.56,0,0,1-.42.18.68.68,0,0,1-.57-.27,1.37,1.37,0,0,1-.22-.83A3.18,3.18,0,0,1,7.73,11,3.49,3.49,0,0,1,8.86,9.78,5.76,5.76,0,0,1,10.68,9a15.84,15.84,0,0,1,2-.25,10.72,10.72,0,0,0,1.54-.2A2.47,2.47,0,0,0,15.15,8c-.21.88-.36,1.66-.45,2.32l-.81,6.26-.47,4.48a5.27,5.27,0,0,0,1.38.21A4.11,4.11,0,0,0,15.69,21.2ZM12.33,17a58.4,58.4,0,0,1,1-6.42c-.88,1.21-1.42,2-1.63,2.3L9,17c.57,0,1.4,0,2.47,0Z" transform="translate(-0.38 -0.38)"/><path d="M17.29,13a.8.8,0,0,1,.5.13.38.38,0,0,1,.18.3.24.24,0,0,1-.07.18.26.26,0,0,1-.19.08l-.12,0a1,1,0,0,1-.14-.17.48.48,0,0,0-.36-.24.37.37,0,0,0-.27.12.44.44,0,0,0-.11.29.67.67,0,0,0,.07.31,3.81,3.81,0,0,0,.37.47,1.32,1.32,0,0,1,.41.85,1,1,0,0,1-.33.71,1.21,1.21,0,0,1-.85.3.94.94,0,0,1-.65-.19.57.57,0,0,1-.21-.45.29.29,0,0,1,.08-.22.25.25,0,0,1,.2-.09.23.23,0,0,1,.17.07.23.23,0,0,1,.08.17s0,.05,0,.1v.08a.26.26,0,0,0,.1.21.4.4,0,0,0,.27.09.78.78,0,0,0,.35-.07.52.52,0,0,0,.23-.21.55.55,0,0,0,.09-.29.56.56,0,0,0-.08-.27,4,4,0,0,0-.36-.45,1.36,1.36,0,0,1-.38-.85.87.87,0,0,1,.29-.65A1,1,0,0,1,17.29,13Z" transform="translate(-0.38 -0.38)"/><path d="M18.65,16.19H18.1l.48-2.07c.23-1,.39-1.67.46-1.91a2.49,2.49,0,0,1,.26-.59,1.84,1.84,0,0,1,.38-.41,1.65,1.65,0,0,1,.5-.28,1.24,1.24,0,0,1,.46-.1.46.46,0,0,1,.29.08.25.25,0,0,1,0,.38.33.33,0,0,1-.22.08,2.91,2.91,0,0,1-.48-.06l-.19,0a.32.32,0,0,0-.21.08.7.7,0,0,0-.18.3,7.1,7.1,0,0,0-.23.9l-.26,1.21a3,3,0,0,1,.73-.64,1.1,1.1,0,0,1,.55-.17.4.4,0,0,1,.31.15.53.53,0,0,1,.13.36.91.91,0,0,1-.41.72,2.08,2.08,0,0,1-1.24.35,1.93,1.93,0,0,1,.45.28,1.78,1.78,0,0,1,.33.43,6.43,6.43,0,0,1,.42.91,3.1,3.1,0,0,0,.56,1,.78.78,0,0,0,.57.25.43.43,0,0,0,.29-.08.21.21,0,0,0,.12-.16A.49.49,0,0,0,22,17a.41.41,0,0,1-.05-.17.23.23,0,0,1,.07-.15.2.2,0,0,1,.16-.07.25.25,0,0,1,.17.08.35.35,0,0,1,.07.23.64.64,0,0,1-.24.49.92.92,0,0,1-.63.21,1.24,1.24,0,0,1-.71-.21,2,2,0,0,1-.59-.67,11,11,0,0,1-.55-1.21,6.31,6.31,0,0,0-.33-.68,1.91,1.91,0,0,0-.31-.34Zm.39-1.8a2.89,2.89,0,0,0,.8-.1.83.83,0,0,0,.43-.28.58.58,0,0,0,.13-.37.33.33,0,0,0-.07-.23.23.23,0,0,0-.18-.09c-.23,0-.59.27-1.06.8Z" transform="translate(-0.38 -0.38)"/><path d="M15.55,20.59H15l.26-1c.13-.5.23-1,.33-1.43a1.62,1.62,0,0,0,0-.21c0-.06,0-.09-.08-.09a.4.4,0,0,0-.17.08,3.76,3.76,0,0,0-.41.39l-.11-.14a3,3,0,0,1,.7-.59,1.2,1.2,0,0,1,.54-.19.17.17,0,0,1,.1,0,.09.09,0,0,1,0,.08,2.4,2.4,0,0,1-.05.27l-.16.68a5.16,5.16,0,0,1,.84-1,.59.59,0,0,1,.37-.2.25.25,0,0,1,.19.07.23.23,0,0,1,.07.17.24.24,0,0,1-.07.18,1.19,1.19,0,0,1-.36.17,1.4,1.4,0,0,0-.44.23,2.11,2.11,0,0,0-.37.4,2.76,2.76,0,0,0-.29.48c-.05.14-.13.45-.24,1Z" transform="translate(-0.38 -0.38)"/><path d="M18.94,17.39a.73.73,0,0,1,.6.29,1.3,1.3,0,0,1,.24.83A2.26,2.26,0,0,1,19.21,20,1.64,1.64,0,0,1,18,20.7a.81.81,0,0,1-.64-.27,1.05,1.05,0,0,1-.24-.73,2.67,2.67,0,0,1,.44-1.47A1.62,1.62,0,0,1,18.94,17.39Zm-.31.28c-.21,0-.41.16-.6.46a2.36,2.36,0,0,0-.29,1.28,1.45,1.45,0,0,0,.18.78.38.38,0,0,0,.35.21.7.7,0,0,0,.56-.4,2.37,2.37,0,0,0,.32-1.27,1.61,1.61,0,0,0-.15-.81A.42.42,0,0,0,18.63,17.67Z" transform="translate(-0.38 -0.38)"/><path d="M22.6,17.48h.53l-.35,1.33a11.67,11.67,0,0,0-.3,1.32.16.16,0,0,0,0,.11.09.09,0,0,0,.07,0,.29.29,0,0,0,.15-.06,3.7,3.7,0,0,0,.46-.44l.12.14c-.49.53-.85.8-1.09.8a.28.28,0,0,1-.2-.09.43.43,0,0,1-.08-.27,2.62,2.62,0,0,1,.08-.53,3.18,3.18,0,0,1-.81.68,1.09,1.09,0,0,1-.55.2.25.25,0,0,1-.2-.09.43.43,0,0,1-.07-.28,1.91,1.91,0,0,1,0-.32q0-.24.24-1a6.56,6.56,0,0,0,.25-1.1c0-.07,0-.11-.08-.11a.38.38,0,0,0-.18.07,3.46,3.46,0,0,0-.38.34l-.17-.13a4.12,4.12,0,0,1,.75-.6.92.92,0,0,1,.42-.14.17.17,0,0,1,.14.06.33.33,0,0,1,.06.21A7.16,7.16,0,0,1,21.2,19,9.82,9.82,0,0,0,21,20a.19.19,0,0,0,.05.13.14.14,0,0,0,.11.06,1.09,1.09,0,0,0,.58-.35,1.58,1.58,0,0,0,.49-.8Z" transform="translate(-0.38 -0.38)"/><path d="M23.69,18.28l-.12-.13a3.89,3.89,0,0,1,.74-.62,1.08,1.08,0,0,1,.48-.15.21.21,0,0,1,.12,0,.1.1,0,0,1,.05.08s0,.06,0,.12l-.17.77a4.47,4.47,0,0,1,.94-.81,1,1,0,0,1,.49-.19.3.3,0,0,1,.23.09.47.47,0,0,1,.08.28.82.82,0,0,1,0,.26c0,.17-.14.53-.3,1.08a4.55,4.55,0,0,0-.24,1,.21.21,0,0,0,0,.12.07.07,0,0,0,.06,0c.07,0,.18-.07.33-.22l.32-.28.1.14a3.58,3.58,0,0,1-.7.62.77.77,0,0,1-.39.15.24.24,0,0,1-.21-.1.61.61,0,0,1-.08-.34,8.76,8.76,0,0,1,.41-1.69,4,4,0,0,0,.12-.56c0-.08,0-.12-.13-.12a.77.77,0,0,0-.38.16,2.58,2.58,0,0,0-.58.56,2,2,0,0,0-.24.66l-.3,1.33h-.54c.1-.38.19-.75.26-1.1L24.34,18a1,1,0,0,0,0-.12c0-.07,0-.1-.08-.1a.29.29,0,0,0-.16.08A1.92,1.92,0,0,0,23.69,18.28Z" transform="translate(-0.38 -0.38)"/><path d="M29.86,19.8l.1.14a5.17,5.17,0,0,1-.73.57,1.14,1.14,0,0,1-.52.2.2.2,0,0,1-.14-.05.17.17,0,0,1-.06-.12,1.72,1.72,0,0,1,0-.21l.13-.47a3.67,3.67,0,0,1-.73.67,1,1,0,0,1-.53.17.42.42,0,0,1-.33-.17A.85.85,0,0,1,27,20a2.83,2.83,0,0,1,.36-1.25,3.08,3.08,0,0,1,.79-1,1.4,1.4,0,0,1,.81-.33,1.25,1.25,0,0,1,.24,0,5.46,5.46,0,0,1,.33-1.08,2,2,0,0,1,.4-.58,1.81,1.81,0,0,1,.57-.39,1.59,1.59,0,0,1,.6-.13.36.36,0,0,1,.24.08.25.25,0,0,1,.09.2.26.26,0,0,1-.08.19.34.34,0,0,1-.23.08l-.34,0a2.05,2.05,0,0,0-.34,0,.35.35,0,0,0-.22.08.79.79,0,0,0-.19.35c0,.12-.13.48-.27,1.1l-.51,2.29a2.86,2.86,0,0,0-.1.54c0,.1,0,.15.11.15a.33.33,0,0,0,.15-.05A4.81,4.81,0,0,0,29.86,19.8Zm-.78-2a2.85,2.85,0,0,0-.41-.07.73.73,0,0,0-.48.2,2,2,0,0,0-.46.78,3,3,0,0,0-.22,1,.48.48,0,0,0,.11.32.28.28,0,0,0,.22.12A.61.61,0,0,0,28.2,20a1.66,1.66,0,0,0,.44-.51,4.67,4.67,0,0,0,.27-.93Z" transform="translate(-0.38 -0.38)"/><path class="cls-2" d="M15.52,21.15l-.1.61a5.52,5.52,0,0,1-.66,0,7.73,7.73,0,0,1-1-.07c-.65-.07-1.07-.11-1.24-.11a10.52,10.52,0,0,0-1.35.14A13.54,13.54,0,0,0,11.74,20q.15-.66.33-2.28-1.21,0-3.78.06A28.67,28.67,0,0,1,4.4,23.05,3.69,3.69,0,0,1,2,24.13a1.33,1.33,0,0,1-.87-.24.73.73,0,0,1-.29-.6.65.65,0,0,1,.17-.46.52.52,0,0,1,.42-.19,1.84,1.84,0,0,1,.4.06,4.42,4.42,0,0,0,.83.15A2.39,2.39,0,0,0,4.25,22a34.81,34.81,0,0,0,4.06-5.63,66.44,66.44,0,0,1,4.93-7.06A18.7,18.7,0,0,0,10,9.79a2.62,2.62,0,0,0-1.31.86,2,2,0,0,0-.44,1.17,1.79,1.79,0,0,0,.14.56,1.78,1.78,0,0,1,.14.58.57.57,0,0,1-.17.42.56.56,0,0,1-.43.19.67.67,0,0,1-.57-.28,1.35,1.35,0,0,1-.21-.83A3.18,3.18,0,0,1,7.57,11,3.42,3.42,0,0,1,8.69,9.73,5.48,5.48,0,0,1,10.52,9a12.39,12.39,0,0,1,2-.25A8.79,8.79,0,0,0,14,8.52,2.38,2.38,0,0,0,15,8c-.21.89-.36,1.66-.45,2.33l-.82,6.26L13.25,21a5.34,5.34,0,0,0,1.39.21A4.75,4.75,0,0,0,15.52,21.15Zm-3.35-4.24a53.86,53.86,0,0,1,1-6.42c-.88,1.22-1.43,2-1.64,2.3L8.85,16.91c.58,0,1.4,0,2.47,0C11.58,17,11.87,16.94,12.17,16.91Z" transform="translate(-0.38 -0.38)"/><path class="cls-2" d="M17.12,12.93a.91.91,0,0,1,.51.13.4.4,0,0,1,.17.31.23.23,0,0,1-.07.17.22.22,0,0,1-.18.08.28.28,0,0,1-.13,0,.85.85,0,0,1-.14-.16.47.47,0,0,0-.36-.25.34.34,0,0,0-.26.12.41.41,0,0,0-.12.3.82.82,0,0,0,.07.3,3.17,3.17,0,0,0,.37.47,1.29,1.29,0,0,1,.41.85.93.93,0,0,1-.33.71,1.21,1.21,0,0,1-.85.3,1,1,0,0,1-.65-.18.6.6,0,0,1-.21-.46.33.33,0,0,1,.08-.22.25.25,0,0,1,.2-.09.24.24,0,0,1,.17.07.25.25,0,0,1,.08.17.41.41,0,0,1,0,.1v.08a.27.27,0,0,0,.1.22.46.46,0,0,0,.27.08.78.78,0,0,0,.35-.07.47.47,0,0,0,.23-.21.54.54,0,0,0,.09-.28.6.6,0,0,0-.08-.28,3.55,3.55,0,0,0-.35-.45,1.31,1.31,0,0,1-.39-.85.89.89,0,0,1,.29-.65A1,1,0,0,1,17.12,12.93Z" transform="translate(-0.38 -0.38)"/><path class="cls-2" d="M18.48,16.13h-.55l.49-2.07c.23-1,.38-1.66.45-1.9a2.17,2.17,0,0,1,.26-.59,1.69,1.69,0,0,1,.38-.42,2.06,2.06,0,0,1,.5-.28,1.47,1.47,0,0,1,.47-.1.44.44,0,0,1,.28.08.25.25,0,0,1,.09.2.22.22,0,0,1-.08.18.28.28,0,0,1-.21.08,3,3,0,0,1-.49-.06l-.19,0a.32.32,0,0,0-.21.09.6.6,0,0,0-.18.29,8.32,8.32,0,0,0-.22.9L19,13.72a3.25,3.25,0,0,1,.73-.64,1.11,1.11,0,0,1,.55-.16.38.38,0,0,1,.31.14.53.53,0,0,1,.13.36.94.94,0,0,1-.41.73,2.13,2.13,0,0,1-1.24.34,1.58,1.58,0,0,1,.45.28,2.29,2.29,0,0,1,.33.43,6.43,6.43,0,0,1,.42.91,3.18,3.18,0,0,0,.56,1,.84.84,0,0,0,.57.25.49.49,0,0,0,.3-.09.22.22,0,0,0,.11-.16.49.49,0,0,0,0-.15.37.37,0,0,1,0-.16.25.25,0,0,1,.06-.16.26.26,0,0,1,.16-.07.21.21,0,0,1,.17.09.31.31,0,0,1,.08.22.61.61,0,0,1-.25.49.92.92,0,0,1-.63.21,1.26,1.26,0,0,1-.71-.21,2,2,0,0,1-.59-.67,10.15,10.15,0,0,1-.55-1.21,3.94,3.94,0,0,0-.33-.68,1.91,1.91,0,0,0-.31-.34Zm.39-1.8a2.52,2.52,0,0,0,.8-.1A.89.89,0,0,0,20.1,14a.6.6,0,0,0,.13-.38.35.35,0,0,0-.07-.23.23.23,0,0,0-.18-.09c-.23,0-.58.27-1.06.8Z" transform="translate(-0.38 -0.38)"/><path class="cls-2" d="M15.38,20.53h-.54l.25-1c.13-.5.24-1,.33-1.43a1.62,1.62,0,0,0,0-.21c0-.06,0-.09-.08-.09a.4.4,0,0,0-.17.08,3.76,3.76,0,0,0-.41.39l-.11-.14a2.76,2.76,0,0,1,.7-.58,1.12,1.12,0,0,1,.54-.2.15.15,0,0,1,.1,0,.09.09,0,0,1,0,.08,2.4,2.4,0,0,1,0,.27l-.16.68a5.16,5.16,0,0,1,.84-1,.65.65,0,0,1,.37-.2.25.25,0,0,1,.19.07.23.23,0,0,1,.07.17.24.24,0,0,1-.07.18,1,1,0,0,1-.36.17,1.52,1.52,0,0,0-.44.23,1.93,1.93,0,0,0-.37.41,2.41,2.41,0,0,0-.29.47c0,.14-.13.45-.24.95Z" transform="translate(-0.38 -0.38)"/><path class="cls-2" d="M18.78,17.33a.75.75,0,0,1,.59.29,1.3,1.3,0,0,1,.24.83A2.3,2.3,0,0,1,19,20a1.64,1.64,0,0,1-1.21.67.8.8,0,0,1-.63-.27,1.05,1.05,0,0,1-.24-.73,2.59,2.59,0,0,1,.44-1.47A1.61,1.61,0,0,1,18.78,17.33Zm-.32.28c-.2,0-.41.16-.6.47a2.39,2.39,0,0,0-.29,1.27,1.45,1.45,0,0,0,.18.78.4.4,0,0,0,.35.21.71.71,0,0,0,.56-.39A2.34,2.34,0,0,0,19,18.67a1.61,1.61,0,0,0-.15-.81A.41.41,0,0,0,18.46,17.61Z" transform="translate(-0.38 -0.38)"/><path class="cls-2" d="M22.44,17.43H23l-.35,1.33a11.26,11.26,0,0,0-.3,1.31.16.16,0,0,0,0,.11.09.09,0,0,0,.08,0,.34.34,0,0,0,.14,0,5.38,5.38,0,0,0,.46-.45l.12.15c-.49.53-.85.79-1.08.79a.25.25,0,0,1-.2-.09.38.38,0,0,1-.09-.27,2.72,2.72,0,0,1,.08-.53,3.38,3.38,0,0,1-.8.69,1.24,1.24,0,0,1-.56.19.25.25,0,0,1-.2-.09.43.43,0,0,1-.07-.28,1.91,1.91,0,0,1,0-.32q0-.24.24-1a6.56,6.56,0,0,0,.25-1.1c0-.07,0-.11-.07-.11a.41.41,0,0,0-.18.07,2.62,2.62,0,0,0-.39.34l-.16-.13a3.89,3.89,0,0,1,.75-.6,1,1,0,0,1,.41-.14.2.2,0,0,1,.15.06.41.41,0,0,1,.05.21A7.76,7.76,0,0,1,21,18.89,8.64,8.64,0,0,0,20.8,20a.24.24,0,0,0,.05.14.16.16,0,0,0,.11.05,1,1,0,0,0,.58-.35A1.67,1.67,0,0,0,22,19Z" transform="translate(-0.38 -0.38)"/><path class="cls-2" d="M23.52,18.22l-.12-.13a3.6,3.6,0,0,1,.75-.62,1,1,0,0,1,.47-.15.21.21,0,0,1,.12,0,.1.1,0,0,1,.05.08s0,.06,0,.12l-.17.77a4.74,4.74,0,0,1,.94-.81,1,1,0,0,1,.5-.19.26.26,0,0,1,.22.1.41.41,0,0,1,.08.27,1.39,1.39,0,0,1,0,.27c0,.16-.14.52-.31,1.07a4.33,4.33,0,0,0-.23,1,.2.2,0,0,0,0,.12.05.05,0,0,0,.06,0q.11,0,.33-.21a4.28,4.28,0,0,1,.33-.29l.09.14a3.28,3.28,0,0,1-.7.62.78.78,0,0,1-.38.15.25.25,0,0,1-.22-.1.58.58,0,0,1-.08-.34,8.76,8.76,0,0,1,.41-1.69,4,4,0,0,0,.12-.56c0-.07,0-.11-.13-.11a.72.72,0,0,0-.38.16,2.14,2.14,0,0,0-.57.55,1.93,1.93,0,0,0-.25.66l-.3,1.33h-.54c.1-.38.19-.75.26-1.1L24.17,18a1.05,1.05,0,0,0,0-.13c0-.07,0-.1-.07-.1a.28.28,0,0,0-.17.08A2.17,2.17,0,0,0,23.52,18.22Z" transform="translate(-0.38 -0.38)"/><path class="cls-2" d="M29.69,19.74l.1.14a6.47,6.47,0,0,1-.73.58,1.23,1.23,0,0,1-.52.19.22.22,0,0,1-.14,0,.17.17,0,0,1-.06-.12,1.72,1.72,0,0,1,0-.21l.13-.47a3.67,3.67,0,0,1-.73.67,1,1,0,0,1-.53.18.4.4,0,0,1-.33-.18.92.92,0,0,1-.13-.52,2.83,2.83,0,0,1,.36-1.25,2.93,2.93,0,0,1,.8-1,1.33,1.33,0,0,1,.8-.34l.24,0a5.46,5.46,0,0,1,.33-1.08,1.85,1.85,0,0,1,.41-.58,1.59,1.59,0,0,1,.57-.38,1.53,1.53,0,0,1,.6-.14.36.36,0,0,1,.23.08.25.25,0,0,1,.09.2.26.26,0,0,1-.08.19.33.33,0,0,1-.22.08,2.05,2.05,0,0,1-.34,0,2.26,2.26,0,0,0-.35,0,.35.35,0,0,0-.22.08.85.85,0,0,0-.19.35c0,.12-.13.48-.26,1.1L29,19.47A3.16,3.16,0,0,0,29,20c0,.09,0,.14.1.14a.37.37,0,0,0,.16,0Zm-.78-2a2.64,2.64,0,0,0-.41-.07.73.73,0,0,0-.48.2,1.94,1.94,0,0,0-.45.78,2.79,2.79,0,0,0-.22,1,.47.47,0,0,0,.1.32.28.28,0,0,0,.23.12A.59.59,0,0,0,28,20a1.57,1.57,0,0,0,.45-.51,5.55,5.55,0,0,0,.26-.93Z" transform="translate(-0.38 -0.38)"/></svg>