<svg id="Layer_1" data-name="Layer 1" xmlns="http://www.w3.org/2000/svg" viewBox="0 0 154 154"><defs><style>.cls-1{fill:#3c1a5b;}.cls-2{fill:#fff748;}</style></defs><title>160 x 160</title><path class="cls-1" d="M17,114.87q3.54-3.36,7.09-6.63a67.49,67.49,0,0,0,13,19.47,63.08,63.08,0,0,0,91.7,0c25.32-26.35,25.32-69.07,0-95.42a63.08,63.08,0,0,0-91.7,0A68.4,68.4,0,0,0,18.43,73.9l4.72-4.61L14.42,92.52,3,70.59l6.15,4.67A78.13,78.13,0,0,1,30.68,25.55c28.89-30.07,75.75-30.07,104.65,0s28.89,78.83,0,108.9-75.76,30.07-104.65,0A76.72,76.72,0,0,1,17,114.87Z" transform="translate(-3 -3)"/><path d="M78.48,105.65l-.52,3c-1.23.1-2.31.16-3.24.16a44.63,44.63,0,0,1-4.83-.32q-4.83-.54-6.12-.54a47,47,0,0,0-6.63.7,68.62,68.62,0,0,0,2.67-8.75,106.83,106.83,0,0,0,1.64-11.21q-6,0-18.63.27-13.09,20.7-19.19,26T12,120.32a6.73,6.73,0,0,1-4.3-1.15,3.63,3.63,0,0,1-1.41-3,3.27,3.27,0,0,1,.82-2.29A2.66,2.66,0,0,1,9.21,113a9.65,9.65,0,0,1,1.95.27,22.77,22.77,0,0,0,4.12.74q3.44,0,7.61-4,6.78-6.61,20-27.75,15-23.91,24.3-34.79Q54.56,48.6,51.42,49.67a13,13,0,0,0-6.48,4.27,9.47,9.47,0,0,0-2.15,5.76,8.26,8.26,0,0,0,.67,2.72,9.72,9.72,0,0,1,.72,2.88,2.91,2.91,0,0,1-.88,2.09,2.82,2.82,0,0,1-2.11.9,3.36,3.36,0,0,1-2.8-1.36,6.61,6.61,0,0,1-1-4.08,15.52,15.52,0,0,1,1.93-7.44,16.64,16.64,0,0,1,5.52-6,27.13,27.13,0,0,1,9-3.71,68.68,68.68,0,0,1,9.77-1.23,49.14,49.14,0,0,0,7.62-1,11.75,11.75,0,0,0,4.64-2.72q-1.54,6.56-2.22,11.47L69.58,83l-2.31,22.09a26.62,26.62,0,0,0,6.83,1A22.17,22.17,0,0,0,78.48,105.65ZM61.92,84.78q2.46-21.66,4.93-31.64-6.51,9-8,11.32L45.58,84.78c2.85.11,6.9.16,12.18.16C59.06,84.94,60.44,84.89,61.92,84.78Z" transform="translate(-3 -3)"/><path d="M86.35,65.16a4.11,4.11,0,0,1,2.48.64,1.84,1.84,0,0,1,.88,1.49,1.28,1.28,0,0,1-1.27,1.26,1,1,0,0,1-.59-.16,3.55,3.55,0,0,1-.73-.8c-.59-.81-1.17-1.22-1.75-1.22a1.79,1.79,0,0,0-1.31.59,2.05,2.05,0,0,0-.57,1.47,3.27,3.27,0,0,0,.36,1.49,12.76,12.76,0,0,0,1.83,2.33,6.46,6.46,0,0,1,2,4.2,4.58,4.58,0,0,1-1.62,3.47,5.94,5.94,0,0,1-4.19,1.49,4.76,4.76,0,0,1-3.2-.91,2.84,2.84,0,0,1-1-2.24,1.53,1.53,0,0,1,.4-1.09,1.29,1.29,0,0,1,1-.43,1.22,1.22,0,0,1,.87.35,1.09,1.09,0,0,1,.36.82c0,.12,0,.28,0,.48s0,.3,0,.42a1.29,1.29,0,0,0,.5,1,1.92,1.92,0,0,0,1.33.44,4,4,0,0,0,1.71-.35,2.54,2.54,0,0,0,1.15-1,2.52,2.52,0,0,0,0-2.74,17.88,17.88,0,0,0-1.74-2.23,6.49,6.49,0,0,1-1.88-4.18,4.33,4.33,0,0,1,1.42-3.21A5,5,0,0,1,86.35,65.16Z" transform="translate(-3 -3)"/><path d="M93.05,80.92H90.36l2.36-10.21c1.15-5.07,1.9-8.2,2.25-9.37a11.32,11.32,0,0,1,1.29-2.91,8.66,8.66,0,0,1,1.88-2A8.57,8.57,0,0,1,100.58,55a6.81,6.81,0,0,1,2.3-.48,2.19,2.19,0,0,1,1.4.38,1.2,1.2,0,0,1,.46,1,1.19,1.19,0,0,1-.41.9,1.52,1.52,0,0,1-1,.38,16.27,16.27,0,0,1-2.4-.28,4.22,4.22,0,0,0-.92-.12,1.6,1.6,0,0,0-1.06.42A3.46,3.46,0,0,0,98,58.66a39.34,39.34,0,0,0-1.1,4.41l-1.29,6a14.39,14.39,0,0,1,3.6-3.15,5.32,5.32,0,0,1,2.69-.82,2,2,0,0,1,1.53.7,2.61,2.61,0,0,1,.62,1.78,4.54,4.54,0,0,1-2,3.58q-2,1.58-6.13,1.68a8.76,8.76,0,0,1,2.22,1.4,9.32,9.32,0,0,1,1.64,2.11,36.45,36.45,0,0,1,2.07,4.49,15.22,15.22,0,0,0,2.78,5,3.91,3.91,0,0,0,2.78,1.23,2.52,2.52,0,0,0,1.47-.4q.57-.41.57-.81a2.07,2.07,0,0,0-.18-.72,2.3,2.3,0,0,1-.2-.82,1.06,1.06,0,0,1,.33-.77,1,1,0,0,1,.76-.34,1.11,1.11,0,0,1,.87.42,1.69,1.69,0,0,1,.36,1.12,3.13,3.13,0,0,1-1.2,2.4,4.51,4.51,0,0,1-3.1,1.05,6.22,6.22,0,0,1-3.53-1,10.18,10.18,0,0,1-2.91-3.31,62.25,62.25,0,0,1-2.71-6,20.77,20.77,0,0,0-1.62-3.33,8.13,8.13,0,0,0-1.53-1.7ZM95,72a12.27,12.27,0,0,0,3.93-.49,4.4,4.4,0,0,0,2.14-1.35,3,3,0,0,0,.64-1.84,1.73,1.73,0,0,0-.37-1.14,1.14,1.14,0,0,0-.9-.43c-1.13,0-2.86,1.3-5.19,3.92Z" transform="translate(-3 -3)"/><path d="M77.78,102.59H75.09l1.26-5c.62-2.48,1.15-4.83,1.61-7a7.25,7.25,0,0,0,.16-1c0-.29-.13-.45-.4-.45a1.79,1.79,0,0,0-.83.39,18.66,18.66,0,0,0-2,1.9l-.56-.65a13.84,13.84,0,0,1,3.46-2.9,6.21,6.21,0,0,1,2.64-1,.83.83,0,0,1,.52.16.5.5,0,0,1,.19.41,9.09,9.09,0,0,1-.24,1.3L80.1,92a23.58,23.58,0,0,1,4.12-5.12,3.11,3.11,0,0,1,1.85-1,1.23,1.23,0,0,1,.9.37,1.15,1.15,0,0,1,.37.85A1.18,1.18,0,0,1,87,88a5.46,5.46,0,0,1-1.77.85,7.71,7.71,0,0,0-2.17,1.12,13.41,13.41,0,0,0-3.24,4.36A40.89,40.89,0,0,0,78.59,99Z" transform="translate(-3 -3)"/><path d="M94.49,86.82a3.66,3.66,0,0,1,3,1.46,6.38,6.38,0,0,1,1.17,4.07,11.19,11.19,0,0,1-2.82,7.47c-1.88,2.21-3.86,3.31-6,3.31a4,4,0,0,1-3.12-1.31,5.14,5.14,0,0,1-1.18-3.58A13.1,13.1,0,0,1,87.7,91Q90.43,86.82,94.49,86.82ZM93,88.23c-1,0-2,.76-3,2.28a11.79,11.79,0,0,0-1.43,6.29,7.18,7.18,0,0,0,.88,3.84,2,2,0,0,0,1.74,1q1.52,0,2.76-2a11.6,11.6,0,0,0,1.59-6.28,8.07,8.07,0,0,0-.73-4A2.13,2.13,0,0,0,93,88.23Z" transform="translate(-3 -3)"/><path d="M112.54,87.31h2.57l-1.7,6.55a53.42,53.42,0,0,0-1.5,6.5.77.77,0,0,0,.16.54.47.47,0,0,0,.36.19,1.35,1.35,0,0,0,.73-.28,22.86,22.86,0,0,0,2.26-2.18l.59.7q-3.63,3.92-5.35,3.92a1.29,1.29,0,0,1-1-.46,1.92,1.92,0,0,1-.41-1.31,11.75,11.75,0,0,1,.39-2.6,16,16,0,0,1-4,3.35,5.45,5.45,0,0,1-2.72,1,1.22,1.22,0,0,1-1-.43,2.14,2.14,0,0,1-.36-1.37,9.1,9.1,0,0,1,.16-1.58c.16-.79.56-2.37,1.2-4.75a35.59,35.59,0,0,0,1.21-5.43c0-.35-.12-.52-.36-.52a1.79,1.79,0,0,0-.89.35A14.94,14.94,0,0,0,101,91.13l-.79-.65a21.91,21.91,0,0,1,3.7-3,4.66,4.66,0,0,1,2-.7.87.87,0,0,1,.7.33,1.59,1.59,0,0,1,.27,1,36.56,36.56,0,0,1-1.3,6.37,44.13,44.13,0,0,0-1.16,5.2,1,1,0,0,0,.25.67.7.7,0,0,0,.53.29c.67,0,1.63-.58,2.87-1.74A8.18,8.18,0,0,0,110.57,95Z" transform="translate(-3 -3)"/><path d="M117.89,91.23l-.61-.66a18.63,18.63,0,0,1,3.69-3,5.14,5.14,0,0,1,2.35-.76.94.94,0,0,1,.59.17.5.5,0,0,1,.22.4,3.57,3.57,0,0,1-.09.6l-.81,3.77a22.56,22.56,0,0,1,4.61-4,4.87,4.87,0,0,1,2.44-1,1.38,1.38,0,0,1,1.1.47,2.05,2.05,0,0,1,.4,1.35,6.12,6.12,0,0,1-.17,1.32q-.29,1.22-1.51,5.3A22.6,22.6,0,0,0,129,100.3a1.24,1.24,0,0,0,.11.58.32.32,0,0,0,.3.19q.52,0,1.65-1c.53-.5,1.06-1,1.59-1.39l.45.68a16.64,16.64,0,0,1-3.45,3.06,3.72,3.72,0,0,1-1.88.75,1.27,1.27,0,0,1-1.07-.52,2.9,2.9,0,0,1-.37-1.68c0-1.11.66-3.88,2-8.3a20,20,0,0,0,.61-2.76c0-.39-.22-.58-.66-.58a3.5,3.5,0,0,0-1.86.79,11.24,11.24,0,0,0-2.84,2.74A9,9,0,0,0,122.32,96l-1.47,6.55h-2.69c.51-1.88,1-3.67,1.32-5.39l1.61-7.13a3.58,3.58,0,0,0,.09-.62q0-.51-.36-.51a1.62,1.62,0,0,0-.83.4A10.89,10.89,0,0,0,117.89,91.23Z" transform="translate(-3 -3)"/><path d="M148.28,98.71l.51.71a28,28,0,0,1-3.6,2.81,5.6,5.6,0,0,1-2.56,1,1,1,0,0,1-.71-.25.77.77,0,0,1-.27-.57,4.81,4.81,0,0,1,.2-1.06l.63-2.29a17.47,17.47,0,0,1-3.61,3.29,5.23,5.23,0,0,1-2.6.86,1.94,1.94,0,0,1-1.61-.87,4.21,4.21,0,0,1-.65-2.56,13.91,13.91,0,0,1,1.76-6.13,14.79,14.79,0,0,1,3.92-5.13,6.76,6.76,0,0,1,3.95-1.66,9.24,9.24,0,0,1,1.19.13,29.62,29.62,0,0,1,1.63-5.32,9.81,9.81,0,0,1,2-2.89,8.86,8.86,0,0,1,2.81-1.89,7.73,7.73,0,0,1,3-.66,1.65,1.65,0,0,1,1.15.39,1.31,1.31,0,0,1,.44,1,1.24,1.24,0,0,1-.4.94,1.53,1.53,0,0,1-1.09.37,12.74,12.74,0,0,1-1.68-.19,14.92,14.92,0,0,0-1.69-.19,1.68,1.68,0,0,0-1.11.41,3.93,3.93,0,0,0-.92,1.73q-.28.84-1.31,5.38l-2.56,11.33a15.55,15.55,0,0,0-.45,2.66c0,.48.18.71.53.71a1.62,1.62,0,0,0,.76-.24A25.54,25.54,0,0,0,148.28,98.71ZM144.45,89a10.12,10.12,0,0,0-2-.34,3.66,3.66,0,0,0-2.37,1,9.64,9.64,0,0,0-2.23,3.83,14.14,14.14,0,0,0-1.07,4.93,2.42,2.42,0,0,0,.49,1.57,1.43,1.43,0,0,0,1.13.61,3.13,3.13,0,0,0,1.74-.69,7.8,7.8,0,0,0,2.2-2.52,24.23,24.23,0,0,0,1.32-4.6Z" transform="translate(-3 -3)"/><path class="cls-2" d="M77.65,105.37l-.51,3c-1.23.11-2.31.16-3.24.16a44.63,44.63,0,0,1-4.83-.32q-4.84-.54-6.12-.54a48.83,48.83,0,0,0-6.64.7A67.06,67.06,0,0,0,59,99.66a106.83,106.83,0,0,0,1.64-11.21q-6,0-18.63.27-13.09,20.7-19.19,26T11.22,120a6.73,6.73,0,0,1-4.3-1.15,3.63,3.63,0,0,1-1.41-3,3.27,3.27,0,0,1,.82-2.29,2.66,2.66,0,0,1,2.06-.91,9.65,9.65,0,0,1,1.95.27,22.19,22.19,0,0,0,4.12.75c2.29,0,4.83-1.36,7.61-4.06q6.78-6.61,20-27.75,15-23.91,24.3-34.79-12.67,1.17-15.82,2.24a13,13,0,0,0-6.47,4.27A9.49,9.49,0,0,0,42,59.42a8.26,8.26,0,0,0,.67,2.72A9.7,9.7,0,0,1,43.36,65a2.94,2.94,0,0,1-.88,2.08,2.82,2.82,0,0,1-2.11.9,3.36,3.36,0,0,1-2.8-1.36,6.59,6.59,0,0,1-1-4.08,15.62,15.62,0,0,1,1.92-7.44,16.84,16.84,0,0,1,5.53-6,27.13,27.13,0,0,1,9-3.71,68.68,68.68,0,0,1,9.77-1.23,49.14,49.14,0,0,0,7.62-1A11.63,11.63,0,0,0,75,40.43Q73.46,47,72.78,51.9l-4,30.84-2.32,22.09a26.75,26.75,0,0,0,6.84,1A22,22,0,0,0,77.65,105.37ZM61.1,84.5Q63.56,62.84,66,52.86q-6.51,9-8.05,11.32L44.76,84.5q4.26.16,12.18.16C58.24,84.66,59.62,84.61,61.1,84.5Z" transform="translate(-3 -3)"/><path class="cls-2" d="M85.52,64.88a4.15,4.15,0,0,1,2.49.64A1.85,1.85,0,0,1,88.88,67a1.28,1.28,0,0,1-1.26,1.26,1.08,1.08,0,0,1-.6-.16,3.58,3.58,0,0,1-.72-.8c-.59-.81-1.17-1.22-1.75-1.22a1.77,1.77,0,0,0-1.31.59,2.05,2.05,0,0,0-.57,1.47A3.27,3.27,0,0,0,83,69.64,12.76,12.76,0,0,0,84.86,72a6.5,6.5,0,0,1,2,4.2,4.58,4.58,0,0,1-1.62,3.47A6,6,0,0,1,81,81.13a4.73,4.73,0,0,1-3.19-.91,2.84,2.84,0,0,1-1-2.24,1.57,1.57,0,0,1,.39-1.09,1.31,1.31,0,0,1,1-.43,1.22,1.22,0,0,1,.87.35,1.09,1.09,0,0,1,.36.82c0,.12,0,.28,0,.48s0,.3,0,.42a1.33,1.33,0,0,0,.51,1A2,2,0,0,0,81.2,80a4,4,0,0,0,1.71-.35,2.54,2.54,0,0,0,1.15-1,2.52,2.52,0,0,0,0-2.74,17.28,17.28,0,0,0-1.75-2.23,6.52,6.52,0,0,1-1.87-4.18,4.33,4.33,0,0,1,1.42-3.21A5,5,0,0,1,85.52,64.88Z" transform="translate(-3 -3)"/><path class="cls-2" d="M92.23,80.64H89.54L91.9,70.43q1.72-7.61,2.25-9.37a11.32,11.32,0,0,1,1.28-2.91,8.93,8.93,0,0,1,4.32-3.43,6.86,6.86,0,0,1,2.31-.48,2.21,2.21,0,0,1,1.4.38,1.23,1.23,0,0,1,.46,1,1.17,1.17,0,0,1-.42.9,1.48,1.48,0,0,1-1,.38,16.27,16.27,0,0,1-2.4-.28,4.23,4.23,0,0,0-.93-.12,1.6,1.6,0,0,0-1,.42,3.47,3.47,0,0,0-.89,1.47,42.65,42.65,0,0,0-1.09,4.41l-1.3,6a14.48,14.48,0,0,1,3.6-3.14,5.37,5.37,0,0,1,2.7-.83,2,2,0,0,1,1.53.7,2.61,2.61,0,0,1,.62,1.78,4.53,4.53,0,0,1-2,3.58q-2,1.58-6.12,1.68a8.76,8.76,0,0,1,2.22,1.4A9.32,9.32,0,0,1,99,76.05,35.28,35.28,0,0,1,101,80.54a15.2,15.2,0,0,0,2.79,5,3.92,3.92,0,0,0,2.78,1.24,2.47,2.47,0,0,0,1.46-.41c.39-.27.58-.54.58-.81a2.07,2.07,0,0,0-.18-.72,2.3,2.3,0,0,1-.2-.82,1.08,1.08,0,0,1,.33-.77,1,1,0,0,1,.76-.34,1.1,1.1,0,0,1,.86.42,1.7,1.7,0,0,1,.37,1.12,3.13,3.13,0,0,1-1.2,2.4,4.51,4.51,0,0,1-3.1,1.05,6.22,6.22,0,0,1-3.53-1,10.18,10.18,0,0,1-2.91-3.31,59.73,59.73,0,0,1-2.71-6,20.77,20.77,0,0,0-1.62-3.33A8.42,8.42,0,0,0,94,72.55Zm1.93-8.88a12.31,12.31,0,0,0,3.93-.49,4.4,4.4,0,0,0,2.14-1.35,3,3,0,0,0,.63-1.84,1.73,1.73,0,0,0-.36-1.14,1.14,1.14,0,0,0-.9-.43q-1.69,0-5.19,3.92Z" transform="translate(-3 -3)"/><path class="cls-2" d="M77,102.31h-2.7l1.27-5q.91-3.72,1.61-7a7.41,7.41,0,0,0,.16-1c0-.3-.13-.45-.4-.45a1.81,1.81,0,0,0-.83.38,17.73,17.73,0,0,0-2,1.9l-.56-.65A13.88,13.88,0,0,1,77,87.47a6.21,6.21,0,0,1,2.64-1,.77.77,0,0,1,.52.17.51.51,0,0,1,.19.4,9.09,9.09,0,0,1-.24,1.3l-.79,3.37a24.17,24.17,0,0,1,4.13-5.12,3.06,3.06,0,0,1,1.85-1,1.22,1.22,0,0,1,.9.36,1.2,1.2,0,0,1,0,1.72,5.31,5.31,0,0,1-1.76.84,7.47,7.47,0,0,0-2.17,1.13,10,10,0,0,0-1.84,2A11.08,11.08,0,0,0,79,94a40.66,40.66,0,0,0-1.21,4.65Z" transform="translate(-3 -3)"/><path class="cls-2" d="M93.67,86.54a3.66,3.66,0,0,1,3,1.46,6.38,6.38,0,0,1,1.17,4.07A11.23,11.23,0,0,1,95,99.55c-1.88,2.2-3.87,3.31-6,3.31a4,4,0,0,1-3.12-1.32A5.14,5.14,0,0,1,84.71,98a13,13,0,0,1,2.17-7.27Q89.61,86.54,93.67,86.54ZM92.13,88q-1.53,0-3,2.28a11.81,11.81,0,0,0-1.43,6.29,7.18,7.18,0,0,0,.88,3.84,2,2,0,0,0,1.74,1q1.52,0,2.76-2a11.6,11.6,0,0,0,1.59-6.28,8.09,8.09,0,0,0-.73-4A2.13,2.13,0,0,0,92.13,88Z" transform="translate(-3 -3)"/><path class="cls-2" d="M111.71,87h2.58l-1.7,6.55a53.42,53.42,0,0,0-1.5,6.5.77.77,0,0,0,.16.54.47.47,0,0,0,.36.19,1.29,1.29,0,0,0,.72-.28,21.34,21.34,0,0,0,2.26-2.17l.6.69q-3.63,3.92-5.35,3.92a1.29,1.29,0,0,1-1-.46,1.91,1.91,0,0,1-.41-1.3,11.9,11.9,0,0,1,.39-2.61,16.24,16.24,0,0,1-4,3.36,5.55,5.55,0,0,1-2.73,1,1.21,1.21,0,0,1-1-.43,2.12,2.12,0,0,1-.36-1.37,8.22,8.22,0,0,1,.16-1.58c.16-.79.56-2.37,1.19-4.75a34.28,34.28,0,0,0,1.21-5.42c0-.35-.12-.53-.36-.53a1.9,1.9,0,0,0-.88.35,13.84,13.84,0,0,0-1.92,1.68l-.79-.66a21.24,21.24,0,0,1,3.69-3,4.65,4.65,0,0,1,2-.71.88.88,0,0,1,.71.33,1.59,1.59,0,0,1,.27,1,36.56,36.56,0,0,1-1.3,6.37,44.61,44.61,0,0,0-1.16,5.2,1,1,0,0,0,.25.68.72.72,0,0,0,.53.28c.67,0,1.63-.58,2.87-1.74a8.19,8.19,0,0,0,2.44-3.94Z" transform="translate(-3 -3)"/><path class="cls-2" d="M117.07,91l-.61-.66a18.93,18.93,0,0,1,3.68-3.05,5.14,5.14,0,0,1,2.36-.75.88.88,0,0,1,.59.17.47.47,0,0,1,.22.39,3.57,3.57,0,0,1-.09.6l-.82,3.77a22.91,22.91,0,0,1,4.62-4,4.87,4.87,0,0,1,2.44-1,1.38,1.38,0,0,1,1.1.47,2.09,2.09,0,0,1,.39,1.35,6.06,6.06,0,0,1-.16,1.32q-.28,1.22-1.51,5.3a22.72,22.72,0,0,0-1.15,5.08,1.13,1.13,0,0,0,.11.58.32.32,0,0,0,.3.19q.53,0,1.65-1.05.8-.75,1.59-1.38l.45.67a16.64,16.64,0,0,1-3.45,3.06,3.72,3.72,0,0,1-1.88.75,1.25,1.25,0,0,1-1.07-.52,2.89,2.89,0,0,1-.38-1.68q0-1.67,2-8.3a20,20,0,0,0,.61-2.76c0-.39-.22-.58-.66-.58a3.56,3.56,0,0,0-1.87.79,11.36,11.36,0,0,0-2.83,2.74,9.09,9.09,0,0,0-1.21,3.23L120,102.31h-2.69c.51-1.88,1-3.67,1.32-5.39l1.61-7.13a3.58,3.58,0,0,0,.09-.62q0-.51-.36-.51a1.59,1.59,0,0,0-.83.4A11.59,11.59,0,0,0,117.07,91Z" transform="translate(-3 -3)"/><path class="cls-2" d="M147.46,98.43l.51.71a29.1,29.1,0,0,1-3.6,2.82,5.67,5.67,0,0,1-2.56,1,1,1,0,0,1-.71-.25.77.77,0,0,1-.27-.57,4.65,4.65,0,0,1,.2-1l.63-2.29a17.66,17.66,0,0,1-3.61,3.28,5.26,5.26,0,0,1-2.6.86,1.94,1.94,0,0,1-1.61-.87,4.21,4.21,0,0,1-.65-2.56A13.78,13.78,0,0,1,135,93.33a14.79,14.79,0,0,1,3.92-5.13,6.76,6.76,0,0,1,3.95-1.66,9.24,9.24,0,0,1,1.19.13,29.89,29.89,0,0,1,1.63-5.32,9.62,9.62,0,0,1,2-2.89,8.83,8.83,0,0,1,2.81-1.88,7.58,7.58,0,0,1,3-.67,1.61,1.61,0,0,1,1.15.4,1.28,1.28,0,0,1,.44,1,1.26,1.26,0,0,1-.4,1,1.58,1.58,0,0,1-1.09.36,12.74,12.74,0,0,1-1.68-.19,14.39,14.39,0,0,0-1.69-.18,1.67,1.67,0,0,0-1.11.4,3.93,3.93,0,0,0-.92,1.73c-.19.56-.63,2.36-1.31,5.38l-2.56,11.33a15.55,15.55,0,0,0-.45,2.66c0,.48.18.72.53.72a1.68,1.68,0,0,0,.76-.25A25.54,25.54,0,0,0,147.46,98.43Zm-3.83-9.69a10.12,10.12,0,0,0-2-.34,3.66,3.66,0,0,0-2.37,1A9.72,9.72,0,0,0,137,93.21a14.14,14.14,0,0,0-1.07,4.94,2.39,2.39,0,0,0,.49,1.56,1.43,1.43,0,0,0,1.13.61,3.13,3.13,0,0,0,1.74-.69,7.8,7.8,0,0,0,2.2-2.52,24.23,24.23,0,0,0,1.32-4.6Z" transform="translate(-3 -3)"/></svg>